<svg width="18" height="18" viewBox="0 0 18 18" fill="none" xmlns="http://www.w3.org/2000/svg">
<path d="M17.8234 0.153516C17.663 0.00247149 17.4301 -0.0409255 17.2285 0.0403453L0.353714 6.79026C0.167501 6.86495 0.0356572 7.03196 0.00601192 7.23024C-0.0231073 7.42799 0.0548946 7.62682 0.210899 7.75153L5.62489 12.0847V15.1875C5.62489 15.3951 5.73915 15.5857 5.92206 15.6835C6.00502 15.728 6.09617 15.75 6.18737 15.75C6.29667 15.75 6.40544 15.7181 6.49937 15.6555L8.13993 14.5617L11.4145 17.8352C11.5211 17.9417 11.665 18 11.8123 18C11.8551 18 11.8985 17.995 11.9414 17.9851C12.1314 17.9401 12.2841 17.8 12.3456 17.6154L17.9706 0.740747C18.0404 0.53308 17.9827 0.304034 17.8234 0.153516ZM15.1018 2.10281L6.14453 11.06L1.66712 7.47634L15.1018 2.10281ZM6.74987 14.1368V13.1724L7.32858 13.7508L6.74987 14.1368ZM11.5662 16.3966L6.98174 11.8136L16.1499 2.64548L11.5662 16.3966Z" fill="#6A6A6A"/>
</svg>
