<svg width="89" height="30" viewBox="0 0 89 30" fill="none" xmlns="http://www.w3.org/2000/svg">
<g clip-path="url(#clip0_89_1350)">
<path d="M37.3711 2.02539L31.4688 29.4022H38.6231L44.3465 2.02539H37.3711Z" fill="#636674"/>
<path d="M26.997 2.02577L19.6637 20.5771L16.6231 4.72742C16.2654 2.92632 14.8345 2.02577 13.4036 2.02577H1.42003L1.24121 2.74625C3.74524 3.28658 6.42818 4.18711 8.21677 5.08766C9.28993 5.628 9.46872 6.1683 9.82644 7.42907L15.3711 29.2225H22.8832L34.3302 1.8457H26.997V2.02577Z" fill="#636674"/>
<path d="M82.6218 2.02539H76.5405C75.1097 2.02539 74.0366 2.7459 73.5 4.00667L62.9473 29.4022H70.2805L71.7114 25.2596H80.6544L81.5487 29.4022H87.9876L82.6218 2.02539ZM74.0366 19.6762L77.7926 9.40997L79.9389 19.6762H74.0366Z" fill="#636674"/>
<path d="M53.6472 9.59031C53.6472 8.68976 54.5415 7.60912 56.6878 7.2489C57.7609 7.06879 60.4439 7.06881 63.6633 8.50969L64.9153 2.74614C63.3055 2.20581 60.9804 1.48535 58.2976 1.48535C51.322 1.48535 46.4928 5.26766 46.4928 10.4909C46.4928 14.4533 50.07 16.6146 52.574 17.8753C55.2569 19.1361 56.1512 20.0367 56.1512 21.2975C56.1512 23.0986 54.0049 23.9991 51.8586 23.9991C48.2814 23.9991 46.3139 23.0986 44.7042 22.198L43.4521 28.1416C45.0619 28.8621 48.1025 29.5825 51.322 29.5825C58.6552 29.5825 63.4844 25.9804 63.4844 20.2169C63.4844 13.3727 53.4683 12.8323 53.6472 9.59031Z" fill="#636674"/>
</g>
<defs>
<clipPath id="clip0_89_1350">
<rect width="87.551" height="28.6531" fill="white" transform="translate(0.65332 0.979492)"/>
</clipPath>
</defs>
</svg>
