<svg width="60" height="39" viewBox="0 0 60 39" fill="none" xmlns="http://www.w3.org/2000/svg">
<g clip-path="url(#clip0_89_1356)">
<path d="M27.1669 33.4874C27.3016 33.6016 27.4474 33.7158 27.5904 33.8272C24.7476 35.7016 21.4106 36.6998 17.9985 36.6965C15.7241 36.6983 13.4717 36.2548 11.37 35.3914C9.26831 34.5279 7.35861 33.2614 5.75012 31.6643C4.14163 30.0672 2.86589 28.1708 1.99586 26.0836C1.12583 23.9964 0.678583 21.7593 0.67969 19.5003C0.679394 16.389 1.52869 13.3359 3.13712 10.666C4.74556 7.99619 7.05291 5.80964 9.81347 4.33921C12.574 2.86878 15.6844 2.16953 18.8134 2.31593C21.9424 2.46233 24.9729 3.4489 27.582 5.17057C27.4418 5.29036 27.3016 5.399 27.195 5.52157C25.1733 7.25545 23.5513 9.40139 22.4391 11.8135C21.327 14.2256 20.7508 16.8473 20.7499 19.5003C20.7499 24.8628 23.0862 29.9606 27.1669 33.4874ZM39.3981 2.30129C35.989 2.2947 32.6546 3.2933 29.8173 5.17057C29.9548 5.29036 30.095 5.399 30.2016 5.52157C34.302 9.03993 36.6495 14.1406 36.6495 19.5003C36.6495 24.86 34.3076 29.9551 30.2324 33.4874C30.095 33.6016 29.9492 33.7158 29.8089 33.8272C32.6493 35.7022 35.9848 36.7005 39.3953 36.6965C41.6876 36.7257 43.9629 36.3024 46.0893 35.4513C48.2156 34.6003 50.1507 33.3383 51.7821 31.7386C53.4136 30.1389 54.709 28.2333 55.5932 26.1325C56.4774 24.0317 56.9329 21.7773 56.933 19.5003C56.9332 17.2233 56.4782 14.9689 55.5943 12.8679C54.7104 10.7669 53.4153 8.86118 51.7841 7.26122C50.1529 5.66127 48.2181 4.39896 46.0919 3.54753C43.9657 2.6961 41.6904 2.2725 39.3981 2.30129ZM28.6983 5.98957C26.6363 7.59543 24.9697 9.64664 23.8248 11.9876C22.6798 14.3285 22.0868 16.8977 22.0905 19.5003C22.0851 22.1043 22.6774 24.6753 23.8223 27.0179C24.9673 29.3604 26.6349 31.4129 28.6983 33.0194C30.7611 31.4122 32.4284 29.3596 33.5738 27.0173C34.7192 24.6749 35.3125 22.1043 35.3089 19.5003C35.3127 16.8975 34.7194 14.328 33.5739 11.9869C32.4285 9.6459 30.7611 7.59487 28.6983 5.98957Z" fill="#636674"/>
</g>
<defs>
<clipPath id="clip0_89_1356">
<rect width="58.898" height="39" fill="white" transform="translate(0.652344)"/>
</clipPath>
</defs>
</svg>
