<svg width="51" height="37" viewBox="0 0 51 37" fill="none" xmlns="http://www.w3.org/2000/svg">
<g clip-path="url(#clip0_89_1338)">
<path d="M32.3012 0.591797C22.4101 0.591797 14.4619 8.65047 14.4619 18.5C14.4619 28.4306 22.4883 36.4081 32.2988 36.4081C42.1092 36.4081 50.1428 28.3494 50.1428 18.5C50.1428 8.65047 42.1116 0.591797 32.3012 0.591797ZM32.3012 25.1749C28.6525 25.1749 25.6534 22.1628 25.6534 18.5C25.6534 14.8371 28.6525 11.825 32.3012 11.825C35.9498 11.825 38.9501 14.8371 38.9501 18.5C38.8683 22.1628 35.9498 25.1749 32.3012 25.1749Z" fill="#636674"/>
<path d="M14.462 5.79492V31.8429H8.14141L0.0332031 5.79492H14.462Z" fill="#636674"/>
</g>
<defs>
<clipPath id="clip0_89_1338">
<rect width="50.1429" height="35.8163" fill="white" transform="translate(0 0.591797)"/>
</clipPath>
</defs>
</svg>
