<svg width="97" height="28" viewBox="0 0 97 28" fill="none" xmlns="http://www.w3.org/2000/svg">
<g clip-path="url(#clip0_89_1341)">
<path fill-rule="evenodd" clip-rule="evenodd" d="M26.1966 0.57129V0.583107C26.1847 0.583107 22.4348 0.57129 21.4348 4.12824C20.5182 7.38977 17.935 16.3944 17.8635 16.6426H17.1493C17.1493 16.6426 14.5065 7.43704 13.578 4.11643C12.578 0.559472 8.81624 0.57129 8.81624 0.57129H0.245117V27.6325H8.81624V11.5612H9.17337H9.5305L14.5303 27.6325H20.4825L25.4823 11.573H26.1966V27.6325H34.7677V0.57129H26.1966Z" fill="#636674"/>
<path fill-rule="evenodd" clip-rule="evenodd" d="M57.505 0.571289C57.505 0.571289 54.9931 0.795814 53.8146 3.4074L47.7434 16.6426H47.0291V0.571289H38.458V27.6325H46.553C46.553 27.6325 49.1838 27.3962 50.3624 24.7964L56.3145 11.5612H57.0288V27.6325H65.5999V0.571289H57.505Z" fill="#636674"/>
<path fill-rule="evenodd" clip-rule="evenodd" d="M69.4092 12.8613V27.6327H77.9803V19.0062H87.2657C91.3132 19.0062 94.7416 16.4419 96.0154 12.8613H69.4092Z" fill="#636674"/>
<path fill-rule="evenodd" clip-rule="evenodd" d="M87.2659 0.571289H68.207C69.1594 5.72356 73.0521 9.85955 78.0876 11.2067C79.2305 11.514 80.4328 11.6794 81.6708 11.6794H96.3608C96.4918 11.0649 96.5513 10.4386 96.5513 9.78865C96.5513 4.69547 92.3967 0.571289 87.2659 0.571289Z" fill="#636674"/>
</g>
<defs>
<clipPath id="clip0_89_1341">
<rect width="96.3061" height="27.0612" fill="white" transform="translate(0.245117 0.571289)"/>
</clipPath>
</defs>
</svg>
