<svg width="32" height="32" viewBox="0 0 32 32" fill="none" xmlns="http://www.w3.org/2000/svg">
<path fill-rule="evenodd" clip-rule="evenodd" d="M10 0C4.47715 0 0 4.47715 0 10V22C0 27.5228 4.47715 32 10 32H22C27.5228 32 32 27.5228 32 22V10C32 4.47715 27.5228 0 22 0H10ZM22.7703 23.5656L25.9391 8.62187C26.2203 7.30469 25.4656 6.78906 24.6031 7.1125L5.975 14.2891C4.70469 14.7859 4.72344 15.4984 5.75938 15.8219L10.5219 17.3125L21.5844 10.3469C22.1047 10 22.5781 10.1922 22.1891 10.5391L13.2406 18.625L12.8938 23.5422C13.3906 23.5422 13.6063 23.3266 13.8641 23.0687L16.1938 20.8281L21.0219 24.3859C21.9078 24.8828 22.5313 24.6203 22.7703 23.5656Z" fill="#D9360F"/>
</svg>
