<svg width="32" height="32" viewBox="0 0 32 32" fill="none" xmlns="http://www.w3.org/2000/svg">
<path fill-rule="evenodd" clip-rule="evenodd" d="M10 0C4.47715 0 0 4.47715 0 10V22C0 27.5228 4.47715 32 10 32H22C27.5228 32 32 27.5228 32 22V10C32 4.47715 27.5228 0 22 0H10ZM23.2997 10.1667H27.1386C28.888 10.1667 27.612 12.1537 26.9069 13.0916C26.3911 13.7778 25.1749 15.3796 24.4313 16.3582C24.2597 16.5841 24.1747 16.8639 24.1914 17.1471C24.2082 17.4302 24.3257 17.6981 24.5227 17.9022C24.5227 17.9022 26.8232 20.327 27.4607 20.9549C28.3666 21.8471 28.3666 23 26.7051 23H23.2602C22.9369 23 22.6258 22.8768 22.3902 22.6554L19.7668 20.1906C19.6458 20.0769 19.4942 20.0011 19.3306 19.9725C19.1671 19.9439 18.9988 19.9638 18.8464 20.0297C18.694 20.0957 18.5642 20.2047 18.4731 20.3435C18.3819 20.4822 18.3333 20.6446 18.3333 20.8107V22.1341C18.3333 22.3638 18.2421 22.584 18.0797 22.7464C17.9173 22.9088 17.6971 23 17.4675 23H15.2757C10.0684 23 5.50617 13.8707 4.44708 10.9656C4.41369 10.8757 4.40263 10.779 4.41485 10.6838C4.42708 10.5886 4.46222 10.4979 4.51726 10.4193C4.57231 10.3407 4.64561 10.2767 4.73086 10.2327C4.81612 10.1887 4.91078 10.166 5.00672 10.1667H8.4946C8.6493 10.1664 8.80082 10.2106 8.93118 10.2939C9.06154 10.3772 9.16528 10.4961 9.23008 10.6366C9.98461 12.5145 10.9632 14.2943 12.1446 15.9375C12.2607 16.0673 12.4139 16.1584 12.5834 16.1985C12.7529 16.2385 12.9306 16.2256 13.0925 16.1614C13.2544 16.0973 13.3928 15.985 13.4889 15.8397C13.5849 15.6945 13.6341 15.5232 13.6298 15.3491C13.6068 14.1675 13.5816 12.7588 13.5816 12.2691C13.5816 10.2943 12.116 10.5313 12.116 10.5313C12.3474 10.2122 12.6566 9.95767 13.0142 9.79176C13.3717 9.62586 13.7657 9.55411 14.1588 9.58333H17.0451C17.3868 9.58333 17.7144 9.71905 17.956 9.96064C18.1976 10.2022 18.3333 10.5299 18.3333 10.8715V14.9601C18.3333 16.1458 19.1901 16.9479 20.5132 14.393C21.005 13.4432 22.5361 10.6235 22.5361 10.6235C22.6102 10.4854 22.7203 10.37 22.8548 10.2896C22.9892 10.2091 23.143 10.1667 23.2997 10.1667Z" fill="#D9360F"/>
</svg>
