<svg width="19" height="19" viewBox="0 0 19 19" fill="none" xmlns="http://www.w3.org/2000/svg">
<path d="M9.49979 8.99531C7.13222 8.99531 5.20624 7.06934 5.20624 4.70176C5.20624 2.33418 7.13222 0.408203 9.49979 0.408203C11.8674 0.408203 13.7933 2.33418 13.7933 4.70176C13.7933 7.06934 11.8674 8.99531 9.49979 8.99531ZM9.49979 1.92227C7.96718 1.92227 6.7203 3.16914 6.7203 4.70176C6.7203 6.23438 7.96718 7.48125 9.49979 7.48125C11.0324 7.48125 12.2793 6.23438 12.2793 4.70176C12.2793 3.16914 11.0324 1.92227 9.49979 1.92227Z" fill="#6A6A6A"/>
<path d="M17.8348 18.5918H1.16523C0.745898 18.5918 0.408203 18.2541 0.408203 17.8347C0.408203 15.3595 1.37305 13.0402 3.1209 11.3035C4.24902 10.1828 5.84102 9.54077 7.48496 9.54077H11.515C13.1627 9.54077 14.751 10.1828 15.8791 11.3035C17.627 13.0402 18.5918 15.3595 18.5918 17.8347C18.5918 18.2541 18.2541 18.5918 17.8348 18.5918ZM1.95938 17.0777H17.0406C16.8699 15.2964 16.0906 13.6488 14.8104 12.3796C13.9643 11.541 12.7619 11.0585 11.515 11.0585H7.48496C6.23438 11.0585 5.03574 11.541 4.18965 12.3796C2.90937 13.6488 2.13008 15.2964 1.95938 17.0777Z" fill="#6A6A6A"/>
</svg>
